<svg width="160" height="160" viewBox="0 0 160 160" fill="none" xmlns="http://www.w3.org/2000/svg">
<g id="bx:bxs-user-circle">
<path id="Vector" d="M79.9999 13.3333C43.8599 13.3333 13.3333 43.8599 13.3333 79.9999C13.3333 116.14 43.8599 146.667 79.9999 146.667C116.14 146.667 146.667 116.14 146.667 79.9999C146.667 43.8599 116.14 13.3333 79.9999 13.3333ZM79.9999 46.6666C91.5133 46.6666 99.9999 55.1466 99.9999 66.6666C99.9999 78.1866 91.5133 86.6666 79.9999 86.6666C68.4933 86.6666 59.9999 78.1866 59.9999 66.6666C59.9999 55.1466 68.4933 46.6666 79.9999 46.6666ZM45.9599 111.813C51.9399 103.013 61.9133 97.1466 73.3333 97.1466H86.6666C98.0933 97.1466 108.06 103.013 114.04 111.813C105.52 120.933 93.4333 126.667 79.9999 126.667C66.5666 126.667 54.4799 120.933 45.9599 111.813Z" fill="#0D0034"/>
</g>
</svg>
