<svg width="414" height="896" viewBox="0 0 414 896" fill="none" xmlns="http://www.w3.org/2000/svg">
<g id="RESULTS" clip-path="url(#clip0)">
<rect width="414" height="896" fill="white"/>
<g id="POLYGRAM 1">
<path id="Rectangle 232" d="M68.5009 585.857L-96.1777 421.521L-15.7155 197.478L68.5008 298.307L35.4569 421.521L155.705 488.762L68.5009 585.857Z" fill="#0D0034"/>
<path id="Rectangle 233" d="M7.33641 189.959L173.503 55.1315L377.188 165.562L269.541 230.655L178.556 153.62L85.3418 269.749L7.33641 189.959Z" fill="#0D0034"/>
<path id="Rectangle 234" d="M354.883 570.965L221.595 688.257L65.9614 601.417L170.504 492.941L197.218 531.762L270.237 492.532L354.883 570.965Z" fill="#0D0034"/>
<path id="Rectangle 235" d="M400.683 169.843L506.462 373.655L370.72 570.172L289.31 485.027L400.683 352.829L289.31 236.315L400.683 169.843Z" fill="#0D0034"/>
</g>
<g id="POLYGRAM 3">
<path id="Rectangle 232_2" d="M-44.5635 910.629L-342.403 536.407L-196.878 26.2193L-44.5636 255.826L-104.327 536.407L113.155 689.527L-44.5635 910.629Z" fill="#0D0034"/>
<path id="Rectangle 233_2" d="M-155.186 9.09847L145.345 -297.928L513.73 -46.4579L319.04 101.771L154.482 -73.6523L-14.1049 190.795L-155.186 9.09847Z" fill="#0D0034"/>
<path id="Rectangle 234_2" d="M473.39 876.719L232.324 1143.81L-49.1564 946.064L139.919 699.043L188.236 787.445L320.299 698.112L473.39 876.719Z" fill="#0D0034"/>
<path id="Rectangle 235_2" d="M556.224 -36.7099L747.536 427.407L502.033 874.913L354.793 681.023L556.224 379.983L354.793 114.66L556.224 -36.7099Z" fill="#0D0034"/>
</g>
<g id="POLYGRAM 2">
<path id="Rectangle 232_3" d="M104.993 384.501L82.9656 286.609L165.668 233.475L172.964 289.106L131.624 321.28L160.179 375.258L104.993 384.501Z" fill="#0D0034"/>
<path id="Rectangle 233_3" d="M175.966 237.052L269.259 236.088L318.447 326.371L263.269 319.613L247.846 270.093L185.939 284.068L175.966 237.052Z" fill="#0D0034"/>
<path id="Rectangle 234_3" d="M214.373 454.989L137.378 458.795L100.376 388.995L164.661 380.542L165.36 400.457L201.624 406.675L214.373 454.989Z" fill="#0D0034"/>
<path id="Rectangle 235_3" d="M326.12 333.979L317.044 429.454L220.415 458.897L210.448 409.208L282.866 394.685L269.239 326.698L326.12 333.979Z" fill="#0D0034"/>
</g>
</g>
<defs>
<clipPath id="clip0">
<rect width="414" height="896" fill="white"/>
</clipPath>
</defs>
</svg>
