<svg width="159" height="146" viewBox="0 0 159 146" fill="none" xmlns="http://www.w3.org/2000/svg">
<g id="bin icon">
<rect id="Rectangle 6" x="10" y="9" width="139" height="128" rx="50" fill="#0D0034"/>
<rect id="Rectangle 7" x="2.5" y="2.5" width="154" height="141" rx="47.5" stroke="#0D0034" stroke-width="5"/>
<g id="icomoon-free:bin" clip-path="url(#clip0)">
<path id="Vector" d="M53.625 58.0625V106.188C53.625 108.834 55.7906 111 58.4375 111H101.75C104.397 111 106.562 108.834 106.562 106.188V58.0625H53.625ZM68.0625 101.375H63.25V67.6875H68.0625V101.375ZM77.6875 101.375H72.875V67.6875H77.6875V101.375ZM87.3125 101.375H82.5V67.6875H87.3125V101.375ZM96.9375 101.375H92.125V67.6875H96.9375V101.375Z" fill="white"/>
<path id="Vector_2" d="M107.766 43.625H92.125V37.6094C92.1212 36.6533 91.7397 35.7374 91.0636 35.0614C90.3876 34.3853 89.4717 34.0038 88.5156 34H71.6719C70.7158 34.0038 69.7999 34.3853 69.1239 35.0614C68.4478 35.7374 68.0663 36.6533 68.0625 37.6094V43.625H52.4219C51.4654 43.6275 50.5488 44.0086 49.8725 44.685C49.1961 45.3613 48.815 46.2779 48.8125 47.2344V53.25H111.375V47.2344C111.372 46.2779 110.991 45.3613 110.315 44.685C109.639 44.0086 108.722 43.6275 107.766 43.625ZM87.3125 43.625H72.875V38.8751H87.3125V43.625Z" fill="white"/>
</g>
</g>
<defs>
<clipPath id="clip0">
<rect width="77" height="77" fill="white" transform="translate(44 34)"/>
</clipPath>
</defs>
</svg>
