<svg width="81" height="81" viewBox="0 0 81 81" fill="none" xmlns="http://www.w3.org/2000/svg">
<g id="home-button">
<path id="Vector" d="M68.85 20.25H12.15C7.69505 20.25 4.05005 23.895 4.05005 28.35V52.65C4.05005 57.105 7.69505 60.75 12.15 60.75H68.85C73.305 60.75 76.95 57.105 76.95 52.65V28.35C76.95 23.895 73.305 20.25 68.85 20.25ZM72.9 48.6C72.9 51.03 71.28 52.65 68.85 52.65H12.15C9.72005 52.65 8.10005 51.03 8.10005 48.6V28.35C8.10005 25.92 9.72005 24.3 12.15 24.3H68.85C71.28 24.3 72.9 25.92 72.9 28.35V48.6Z" fill="#0D0034"/>
<path id="HOME" d="M32.3691 41V32.4688H31.3438V36.1367H27.8457V32.4688H26.8262V41H27.8457V37.0566H31.3438V41H32.3691ZM39.7754 37.2266V36.2539C39.7715 35.9492 39.7441 35.6406 39.6934 35.3281C39.6465 35.0156 39.5723 34.7148 39.4707 34.4258C39.3652 34.1367 39.2324 33.8672 39.0723 33.6172C38.916 33.3633 38.7285 33.1426 38.5098 32.9551C38.291 32.7676 38.0391 32.6211 37.7539 32.5156C37.4688 32.4062 37.1504 32.3516 36.7988 32.3516C36.4473 32.3516 36.1289 32.4062 35.8438 32.5156C35.5625 32.6211 35.3125 32.7676 35.0938 32.9551C34.875 33.1465 34.6855 33.3691 34.5254 33.623C34.3691 33.873 34.2402 34.1426 34.1387 34.4316C34.0332 34.7207 33.9551 35.0215 33.9043 35.334C33.8574 35.6426 33.832 35.9492 33.8281 36.2539V37.2266C33.832 37.5312 33.8594 37.8379 33.9102 38.1465C33.9609 38.4551 34.0391 38.7539 34.1445 39.043C34.2461 39.332 34.377 39.6035 34.5371 39.8574C34.6973 40.1074 34.8867 40.3262 35.1055 40.5137C35.3242 40.7012 35.5742 40.8496 35.8555 40.959C36.1406 41.0645 36.459 41.1172 36.8105 41.1172C37.1621 41.1172 37.4785 41.0645 37.7598 40.959C38.0449 40.8496 38.2969 40.7012 38.5156 40.5137C38.7344 40.3262 38.9219 40.1074 39.0781 39.8574C39.2383 39.6074 39.3691 39.3379 39.4707 39.0488C39.5723 38.7598 39.6465 38.4609 39.6934 38.1523C39.7441 37.8398 39.7715 37.5312 39.7754 37.2266ZM38.7031 36.2422V37.2266C38.6992 37.4297 38.6855 37.6426 38.6621 37.8652C38.6426 38.0879 38.6055 38.3066 38.5508 38.5215C38.4922 38.7402 38.416 38.9492 38.3223 39.1484C38.2324 39.3438 38.1191 39.5156 37.9824 39.6641C37.8418 39.8164 37.6738 39.9375 37.4785 40.0273C37.2871 40.1172 37.0645 40.1621 36.8105 40.1621C36.5566 40.1621 36.334 40.1172 36.1426 40.0273C35.9512 39.9375 35.7852 39.8164 35.6445 39.6641C35.5039 39.5156 35.3867 39.3418 35.293 39.1426C35.1992 38.9434 35.123 38.7344 35.0645 38.5156C35.0059 38.3008 34.9629 38.082 34.9355 37.8594C34.9121 37.6367 34.8984 37.4258 34.8945 37.2266V36.2422C34.8984 36.043 34.9121 35.834 34.9355 35.6152C34.9629 35.3926 35.0059 35.1719 35.0645 34.9531C35.1191 34.7383 35.1934 34.5332 35.2871 34.3379C35.3809 34.1387 35.498 33.9629 35.6387 33.8105C35.7793 33.6621 35.9453 33.543 36.1367 33.4531C36.3281 33.3633 36.5488 33.3184 36.7988 33.3184C37.0527 33.3184 37.2754 33.3633 37.4668 33.4531C37.6582 33.5391 37.8242 33.6562 37.9648 33.8047C38.1055 33.957 38.2227 34.1328 38.3164 34.332C38.4102 34.5273 38.4863 34.7324 38.5449 34.9473C38.5996 35.166 38.6387 35.3867 38.6621 35.6094C38.6855 35.8281 38.6992 36.0391 38.7031 36.2422ZM42.623 32.4688H41.2812V41H42.3359V37.5957L42.248 34.1562L43.6953 38.627H44.3164L45.8926 34.0332L45.8047 37.5957V41H46.8594V32.4688H45.5117L44.0117 36.7344L42.623 32.4688ZM53.334 37.0566V36.1367H49.7715V33.3945H53.873V32.4688H48.6875V41H53.9258V40.0801H49.7715V37.0566H53.334Z" fill="#0D0034"/>
</g>
</svg>
