<svg width="159" height="146" viewBox="0 0 159 146" fill="none" xmlns="http://www.w3.org/2000/svg">
<g id="shopping-cart">
<g id="shooping-list-menu">
<rect id="Rectangle 6" x="10" y="9" width="139" height="128" rx="50" fill="#0D0034"/>
<rect id="Rectangle 7" x="2.5" y="2.5" width="154" height="141" rx="47.5" stroke="#0D0034" stroke-width="5"/>
</g>
<g id="shpping-list-logo">
<path id="Vector" d="M59.6181 111.444C64.217 111.444 67.9452 107.716 67.9452 103.117C67.9452 98.5182 64.217 94.79 59.6181 94.79C55.0192 94.79 51.291 98.5182 51.291 103.117C51.291 107.716 55.0192 111.444 59.6181 111.444Z" fill="white"/>
<path id="Vector_2" d="M94.4736 112C99.1205 112 102.888 108.148 102.888 103.395C102.888 98.6427 99.1205 94.79 94.4736 94.79C89.8266 94.79 86.0596 98.6427 86.0596 103.395C86.0596 108.148 89.8266 112 94.4736 112Z" fill="white"/>
<path id="Vector_3" fill-rule="evenodd" clip-rule="evenodd" d="M118.998 33C114.843 33 111.482 36.4711 111.482 40.7534L110.485 48.5358H37.135C35.2922 48.5358 34 50.1989 34 52.3255C34 53.131 34.0579 53.8901 34.4172 54.4986L41.4347 86.1032C41.6665 87.0999 42.4082 87.8358 43.3527 88.2415C43.81 88.5413 44.3418 88.7078 44.8884 88.7224H105.531L104.522 95.0561H48.7651C46.9165 95.0561 45.8619 95.3806 45.8619 97.5073C45.8619 99.634 46.9165 100.254 48.7651 100.254L111.291 100.26L118.012 48.4083C118.343 48.4488 118.656 48.5126 118.998 48.5126C123.141 48.5126 126.502 45.0357 126.502 40.7592C126.502 36.4711 123.135 33 118.998 33ZM107.767 66.4474H97.6497V54.0408H109.691L107.767 66.4474ZM46.4819 83.1653L44.6913 71.3729H57.3355V83.1653H46.4819ZM80.0857 54.0466H91.9476V65.9085H80.0857V54.0466ZM74.6503 66.0881H62.6087V53.9539H74.6503V66.0881ZM57.266 66.0301H44.5349L42.7153 54.0582H57.2718V66.0301H57.266ZM62.7015 71.4309H74.6503V83.4724H62.7015V71.4309ZM80.0857 71.3382H92.0345V83.4724H80.0857V71.3382ZM97.47 83.3797V71.5178H108.515L106.84 83.3797H97.47Z" fill="white"/>
</g>
</g>
</svg>
